<?xml version="1.0" standalone="no"?><!DOCTYPE svg PUBLIC "-//W3C//DTD SVG 1.1//EN" "http://www.w3.org/Graphics/SVG/1.1/DTD/svg11.dtd"><svg t="1672816936287" class="icon" viewBox="0 0 1024 1024" version="1.1" xmlns="http://www.w3.org/2000/svg" p-id="3431" xmlns:xlink="http://www.w3.org/1999/xlink" width="32" height="32"><path d="M961.953792 123.623708l0-54.5682c0.004955-30.134988-25.991935-54.5682-58.054271-54.5682l-783.796071 0c-32.061344 0-58.059225 24.435194-58.059225 54.5682l0.000991 54.5682c0 180.23123 125.040729 341.126561 294.085419 407.492701-169.039735 58.71918-294.085419 203.52587-294.085419 383.747191l0 54.5682c0 30.138952 25.99689 54.5682 58.059225 54.5682l783.79508 0c32.061344 0 58.054271-24.430239 58.054271-54.5682l0-54.5682c0-183.071218-111.799013-327.52712-277.060354-383.775927 165.261342-63.652 277.061345-224.391756 277.061345-407.464955l0 0zM568.750215 511.313785c-0.691665-0.063419-1.388284-0.101074-2.099768-0.101074-12.322139 0-22.308671 9.390986-22.308671 20.973896 0 11.580928 9.987522 20.968942 22.308671 20.968942l0 0.148639c0.12882 0.018828 0.251695 0.030719 0.378533 0.048555l0 0.034682c226.724391 0 351.898895 197.949941 351.898895 376.645239 0 31.294369-26.995741 56.664004-60.285831 56.664004l-693.276159-0.000991c-33.297027 0-60.288804-25.367653-60.288804-56.664004 0-169.30233 136.995236-372.962965 352.31211-376.621456l0-0.129811c12.32313 0 22.310653-9.387023 22.310653-20.969933 0-11.580928-9.987522-20.972905-22.310653-20.972905l0-0.014864c-155.227246 1.015697-352.31211-180.568144-352.31211-402.871032 0-31.288424 26.995741-56.658059 60.288804-56.658059l693.27715 0c33.289099 0 60.280877 25.367653 60.280877 56.658059 0.003964 178.128489-123.339313 401.489684-350.172705 402.861123l0 0zM491.90109 365.6113c0-12.905794-11.135012-23.366978-24.865255-23.366978l0-0.312141c-0.317096 0-0.631219 0.0109-0.948314 0.0109-94.801694 0-172.009534-70.776743-175.093289-159.181032 0.425106-1.719253 0.660946-3.509853 0.660946-5.353962 0-12.905794-11.134021-23.370941-24.865255-23.370941-13.730242 0-24.8603 10.465148-24.8603 23.370941 0 116.84777 100.783902 211.573163 225.107203 211.573163l0 0 0 0 0 0 0 0c13.731233 0.000991 24.866246-10.461184 24.866246-23.370941l0 0zM266.788932 877.720798c13.735197 0 24.865255-10.464157 24.865255-23.370941l0.333941 0c0-0.292323-0.0109-0.591582-0.0109-0.885886 0-89.105863 75.304275-161.674197 169.35683-164.570668 1.8342 0.399342 3.739747 0.621309 5.700785 0.621309 13.730242 0 24.865255-10.461184 24.865255-23.370941 0-12.905794-11.130058-23.366978-24.865255-23.366978-124.32231 0-225.107203 94.723411-225.107203 211.572172l0 0 0 0 0 0 0 0c-0.000991 12.906784 11.130058 23.371932 24.8603 23.371932l0 0zM266.788932 877.720798z" fill="#272636" p-id="3432"></path></svg>